<svg xmlns="http://www.w3.org/2000/svg" xmlns:xlink="http://www.w3.org/1999/xlink" width="500" zoomAndPan="magnify" viewBox="0 0 375 374.999991" height="500" preserveAspectRatio="xMidYMid meet" version="1.0"><defs><g/><clipPath id="54adb94afa"><path d="M 38.796875 30.375 L 349.296875 30.375 L 349.296875 356.414062 L 38.796875 356.414062 Z M 38.796875 30.375 " clip-rule="nonzero"/></clipPath><clipPath id="776299d93f"><path d="M 339.882812 139.113281 C 345.566406 155.773438 349.296875 174.832031 349.296875 193.484375 C 349.296875 212.132812 346.097656 230.082031 340.414062 246.621094 C 340.238281 246.972656 340.238281 247.324219 340.058594 247.675781 C 317.320312 309.785156 257.28125 355.535156 189.125 356.414062 L 38.503906 356.414062 L 38.503906 30.375 L 189.015625 30.375 C 257.636719 31.253906 317.675781 76.300781 339.882812 139.113281 Z M 339.882812 139.113281 " clip-rule="nonzero"/></clipPath><clipPath id="940ea324d4"><path d="M 0 80.605469 L 122.914062 80.605469 L 122.914062 306.597656 L 0 306.597656 Z M 0 80.605469 " clip-rule="nonzero"/></clipPath><clipPath id="270b1710e8"><path d="M 323.613281 307.019531 L 375 307.019531 L 375 358.40625 L 323.613281 358.40625 Z M 323.613281 307.019531 " clip-rule="nonzero"/></clipPath><clipPath id="3de442be3a"><path d="M 349.308594 307.019531 C 335.117188 307.019531 323.613281 318.523438 323.613281 332.714844 C 323.613281 346.902344 335.117188 358.40625 349.308594 358.40625 C 363.496094 358.40625 375 346.902344 375 332.714844 C 375 318.523438 363.496094 307.019531 349.308594 307.019531 Z M 349.308594 307.019531 " clip-rule="nonzero"/></clipPath></defs><g clip-path="url(#54adb94afa)"><g clip-path="url(#776299d93f)"><path stroke-linecap="butt" transform="matrix(0, 0.75, -0.75, 0, 349.296282, 30.376045)" fill="none" stroke-linejoin="miter" d="M 144.982991 12.551293 C 167.196534 4.973167 192.607994 -0.00079125 217.477787 -0.00079125 C 242.342372 -0.00079125 266.274665 4.264834 288.32675 11.84296 C 288.7955 12.077335 289.26425 12.077335 289.733 12.316918 C 372.545506 42.634628 433.54551 122.686717 434.717385 213.561723 L 434.717385 414.389861 L -0.00139382 414.389861 L -0.00139382 213.707556 C 1.170481 122.212758 61.232985 42.16067 144.982991 12.551293 Z M 144.982991 12.551293 " stroke="#282828" stroke-width="56" stroke-opacity="1" stroke-miterlimit="4"/></g></g><g clip-path="url(#940ea324d4)"><path fill="#e4e2dd" d="M -8.882812 80.605469 L 122.914062 80.605469 L 122.914062 306.617188 L -8.882812 306.617188 Z M -8.882812 80.605469 " fill-opacity="1" fill-rule="nonzero"/></g><g clip-path="url(#270b1710e8)"><g clip-path="url(#3de442be3a)"><path fill="#282828" d="M 323.613281 307.019531 L 375 307.019531 L 375 358.40625 L 323.613281 358.40625 Z M 323.613281 307.019531 " fill-opacity="1" fill-rule="nonzero"/></g></g><g fill="#282828" fill-opacity="1"><g transform="translate(73.882376, 272.418594)"><g><path d="M -28.3125 -0.34375 L -35.390625 -0.34375 L -35.390625 -25.234375 L -28.3125 -25.234375 L -28.3125 -16.8125 L 0 -16.8125 L 0 -8.75 L -28.3125 -8.75 Z M -28.3125 -0.34375 "/></g></g></g><g fill="#282828" fill-opacity="1"><g transform="translate(73.882376, 238.654771)"><g><path d="M -17.71875 -0.984375 C -22.84375 -0.984375 -27.175781 -2.726562 -30.71875 -6.21875 C -34.269531 -9.707031 -36.046875 -13.910156 -36.046875 -18.828125 C -36.046875 -23.785156 -34.273438 -27.992188 -30.734375 -31.453125 C -27.203125 -34.910156 -22.863281 -36.640625 -17.71875 -36.640625 C -12.539062 -36.640625 -8.1875 -34.9375 -4.65625 -31.53125 C -1.125 -28.132812 0.640625 -23.898438 0.640625 -18.828125 C 0.640625 -13.648438 -1.109375 -9.378906 -4.609375 -6.015625 C -8.117188 -2.660156 -12.488281 -0.984375 -17.71875 -0.984375 Z M -17.71875 -9.703125 C -15.863281 -9.703125 -14.171875 -9.984375 -12.640625 -10.546875 C -11.109375 -11.117188 -9.8125 -12.117188 -8.75 -13.546875 C -7.695312 -14.984375 -7.171875 -16.742188 -7.171875 -18.828125 C -7.171875 -21.835938 -8.195312 -24.109375 -10.25 -25.640625 C -12.3125 -27.171875 -14.800781 -27.9375 -17.71875 -27.9375 C -20.601562 -27.9375 -23.082031 -27.15625 -25.15625 -25.59375 C -27.238281 -24.03125 -28.28125 -21.773438 -28.28125 -18.828125 C -28.28125 -15.910156 -27.238281 -13.660156 -25.15625 -12.078125 C -23.082031 -10.492188 -20.601562 -9.703125 -17.71875 -9.703125 Z M -17.71875 -9.703125 "/></g></g></g><g fill="#282828" fill-opacity="1"><g transform="translate(73.882376, 192.835497)"><g><path d="M -35.390625 -2.578125 L -35.390625 -12.828125 C -35.390625 -17.742188 -33.707031 -21.945312 -30.34375 -25.4375 C -26.988281 -28.925781 -22.78125 -30.671875 -17.71875 -30.671875 C -12.625 -30.671875 -8.394531 -28.929688 -5.03125 -25.453125 C -1.675781 -21.984375 0 -17.773438 0 -12.828125 L 0 -2.578125 Z M -7.203125 -10.640625 L -7.203125 -11.890625 C -7.203125 -14.828125 -8.195312 -17.234375 -10.1875 -19.109375 C -12.175781 -20.984375 -14.671875 -21.9375 -17.671875 -21.96875 C -20.679688 -21.96875 -23.1875 -21.03125 -25.1875 -19.15625 C -27.1875 -17.28125 -28.1875 -14.859375 -28.1875 -11.890625 L -28.1875 -10.640625 Z M -7.203125 -10.640625 "/></g></g></g><g fill="#282828" fill-opacity="1"><g transform="translate(73.882376, 152.979605)"><g><path d="M -17.71875 -0.984375 C -22.84375 -0.984375 -27.175781 -2.726562 -30.71875 -6.21875 C -34.269531 -9.707031 -36.046875 -13.910156 -36.046875 -18.828125 C -36.046875 -23.785156 -34.273438 -27.992188 -30.734375 -31.453125 C -27.203125 -34.910156 -22.863281 -36.640625 -17.71875 -36.640625 C -12.539062 -36.640625 -8.1875 -34.9375 -4.65625 -31.53125 C -1.125 -28.132812 0.640625 -23.898438 0.640625 -18.828125 C 0.640625 -13.648438 -1.109375 -9.378906 -4.609375 -6.015625 C -8.117188 -2.660156 -12.488281 -0.984375 -17.71875 -0.984375 Z M -17.71875 -9.703125 C -15.863281 -9.703125 -14.171875 -9.984375 -12.640625 -10.546875 C -11.109375 -11.117188 -9.8125 -12.117188 -8.75 -13.546875 C -7.695312 -14.984375 -7.171875 -16.742188 -7.171875 -18.828125 C -7.171875 -21.835938 -8.195312 -24.109375 -10.25 -25.640625 C -12.3125 -27.171875 -14.800781 -27.9375 -17.71875 -27.9375 C -20.601562 -27.9375 -23.082031 -27.15625 -25.15625 -25.59375 C -27.238281 -24.03125 -28.28125 -21.773438 -28.28125 -18.828125 C -28.28125 -15.910156 -27.238281 -13.660156 -25.15625 -12.078125 C -23.082031 -10.492188 -20.601562 -9.703125 -17.71875 -9.703125 Z M -17.71875 -9.703125 "/></g></g></g></svg>